<svg xmlns="http://www.w3.org/2000/svg" height="311" width="320" version="1.1" viewBox="0 0 320 311"><title>Big Shots Logo Copy</title><desc>Created with Sketch.</desc><g fill-rule="evenodd" fill="none"><g transform="translate(-35 -2291)"><g transform="translate(0 2251)"><g transform="translate(33 40)"><path stroke="#000" stroke-linecap="square" d="m2.5 39.5v270.9M3.1 310.5h269.4M17.5 24.5v270.9M18.1 295.5h269.4"/><rect height="280" width="289" y="0" x="33" fill="#000"/><g fill="#fff" transform="translate(117 111)"><path d="m112.2 59.7v-0.3c-2.4-0.4-4.8-3.8-5.5-7.5h-0.3l0.4 6.7c0.9 0.4 3.1 1 5.4 1.2zm9.2-6.4c0-3.9-2.8-5.5-6-7.3-3.4-1.8-5.5-2.9-5.5-5.5 0-2.3 1.1-3.6 3.3-3.8v-0.3c-3.1 0.3-6.2 2.4-6.2 5.9 0 3.6 3.4 5.4 6.4 7 3.2 1.7 5.1 3 5.1 5.4 0 3.2-2.1 4.5-4.7 4.7v0.3c3.1-0.2 7.6-1.6 7.6-6.4zm-1.2-10.7l-0.3-5.4c-1.2-0.4-3.7-0.9-5-0.9v0.3c2.9 0.4 4.3 2.9 5 5.9h0.3zm-27.7-5.9h-3.5v18.3c0 3-0.8 3.9-3.2 4.2v0.3h10v-0.3c-2.5-0.3-3.2-1.2-3.2-4.2v-18.3zm1.7 0.3c1.1 0 2 0.3 3 0.8 1.7 0.9 3 3 3.7 5.6h0.3l-0.4-6.7h-6.6v0.3zm-7-0.3h-6.6l-0.4 6.7h0.3c0.7-2.6 2-4.7 3.7-5.6 1-0.5 2-0.8 3-0.8v-0.3zm-24.3 0c0.9 0.1 1.9 0.3 2.7 0.7 3.8 1.7 5.5 6.1 5.5 11.3 0 5.5-1.9 8.5-4.6 10-0.7 0.4-1.8 0.7-2.4 0.8v0.3c5.3-0.4 11-4.5 11-11.5 0-6.2-4-11.8-12.1-11.9v0.3zm-0.4 22.7c-0.9-0.1-1.9-0.3-2.7-0.7-3.8-1.7-5.5-6.1-5.5-11.3 0-5.5 1.9-8.5 4.6-10 0.7-0.4 1.8-0.7 2.4-0.8v-0.3c-5.3 0.3-11 4.5-11 11.5 0 6.2 4 11.8 12.1 11.9v-0.3zm-20-18.3c0-3 0.8-3.9 3.2-4.2v-0.3h-10v0.3c2.5 0.3 3.2 1.2 3.2 4.2v13.8c0 3-0.8 3.9-3.2 4.2v0.3h10v-0.3c-2.5-0.3-3.2-1.2-3.2-4.2v-13.8zm-19.5 13.8c0 3-0.8 3.9-3.2 4.2v0.3h10v-0.3c-2.5-0.3-3.2-1.2-3.2-4.2v-13.8c0-3 0.8-3.9 3.2-4.2v-0.3h-10v0.3c2.5 0.3 3.2 1.2 3.2 4.2v13.8zm4.8-6.9h9.9v-0.8h-9.9v0.8zm-21.8 11.7v-0.3c-2.4-0.4-4.8-3.8-5.5-7.5h-0.3l0.4 6.7c0.9 0.4 3.1 1 5.4 1.2zm9.2-6.4c0-3.9-2.8-5.5-6-7.3-3.4-1.8-5.5-2.9-5.5-5.5 0-2.3 1.1-3.6 3.3-3.8v-0.3c-3.2 0.3-6.2 2.4-6.2 5.9 0 3.6 3.4 5.4 6.4 7 3.2 1.7 5.1 3 5.1 5.4 0 3.2-2.1 4.5-4.7 4.7v0.3c3.1-0.2 7.6-1.6 7.6-6.4zm-1.2-10.7l-0.3-5.4c-1.2-0.4-3.7-0.9-5-0.9v0.3c2.9 0.4 4.3 2.9 5 5.9h0.3zM49.3 23.1c-0.9-0.1-1.9-0.3-2.7-0.7-3.8-1.7-5.5-6.1-5.5-11.3 0-5.5 1.9-8.5 4.6-10 0.7-0.4 1.8-0.7 2.4-0.8v-0.3c-5.3 0.3-11 4.5-11 11.5 0 6.2 4 11.8 12.1 11.9v-0.3zm5.5-5.6v3.2c0 1.1-0.5 1.6-1.6 2-0.8 0.3-1.3 0.4-2.3 0.4v0.3c2.2-0.1 5.5-0.6 7.2-1.2v-4.7c0-3 0.8-3.9 3.2-4.2v-0.3h-9.7v0.3c2.5 0.3 3.2 1.2 3.2 4.2zm3.1-10.3l-0.5-6.3c-1.4-0.5-4.3-0.9-7.6-0.9v0.3c0.6 0.1 1.2 0.1 1.7 0.2 3.2 0.7 5.4 3.3 6.1 6.7h0.3zm-31.9 11.4c0 3-0.8 3.9-3.2 4.2v0.3h10v-0.3c-2.5-0.3-3.2-1.2-3.2-4.2v-13.8c0-3 0.8-3.9 3.2-4.2v-0.3h-10v0.3c2.5 0.3 3.2 1.2 3.2 4.2v13.8zm-7.6-1.6c0-4-3.6-5.5-7.4-6v-0.1c3-0.6 5.7-2.6 5.7-5.3 0-4.3-4.6-5.4-7.7-5.4v0.3c2.5 0.2 4.2 1.4 4.2 5.2 0 2.1-1.2 4.3-3.2 5-0.4 0.1-1.1 0.2-1.4 0.2v0.3c0.7 0 1.7 0.1 2.3 0.3 2.3 0.8 3.8 2.9 3.8 5.5 0 3.1-1.1 5.4-5.8 5.8v0.3c0.4 0 1.4 0 2-0.1 4.1-0.4 7.5-2 7.5-6zm-18.4 6h6.8v-22.8l-6.8 0v0.3c2.5 0.3 3.2 1.2 3.2 4.2v13.8c0 3-0.8 3.9-3.2 4.2v0.3z"/></g><path stroke="#fff" stroke-linecap="square" d="m49.5 263.5h-0.5 0.5v-14.6 14.6zh14.5-14.5v0.4-0.4zl48.3-48.3-48.3 48.3zM258 63.8h-0.5 0.5v-14.6 14.6zh14.5-14.5v0.4-0.4zm0 0l48.3-48.3-48.3 48.3z"/></g></g></g></g></svg>