<svg xmlns="http://www.w3.org/2000/svg" version="1.1" x="0" y="0" viewBox="-258 223.8 441.5 178" xml:space="preserve"><style type="text/css">
	.st0{display:none;fill:#FF0500;}
	.st1{fill:#FFFFFF;}
	.st2{fill:#FF0500;}
	.st3{fill:none;}
	.st4{fill:#E5E5E5;}
	.st5{fill:#999999;}
</style><rect x="-281.5" y="210.8" class="st0" width="275" height="60"/><path class="st1" d="M-217.3 243.5h8.1c0-3.5-2.3-4.9-4-4.9C-215.2 238.6-217.2 240.2-217.3 243.5zM-97.2 243.4h8.1c0-3.5-2.3-4.9-4-4.9C-95 238.6-97.1 240.2-97.2 243.4L-97.2 243.4zM-72.8 243.4h8.1c0-3.5-2.3-4.9-3.9-4.9C-70.6 238.5-72.7 240.1-72.8 243.4zM-29.1 256.7l0.1-0.1c0-0.1 0-0.1-0.1-0.1 0 0-0.1-0.1-0.2-0.1h-0.2v0.4h0.2C-29.2 256.7-29.1 256.7-29.1 256.7zM-29 256.9c0.1 0 0.1 0 0.1 0.1 0 0 0.1 0.1 0.1 0.2 0 0 0.1 0.2 0.2 0.4H-29c-0.1-0.3-0.2-0.5-0.3-0.5 -0.1-0.1-0.1-0.1-0.1-0.1s0 0-0.1 0v0.6h-0.4v-1.5h0.7c0.2 0 0.3 0 0.4 0.1 0.1 0.1 0.1 0.2 0.1 0.3s0 0.2-0.1 0.3C-28.8 256.8-28.9 256.9-29 256.9L-29 256.9zM-28.4 257.6c0.2-0.2 0.3-0.5 0.3-0.8 0-0.3-0.1-0.6-0.3-0.8 -0.2-0.2-0.5-0.3-0.8-0.3s-0.6 0.1-0.8 0.3c-0.2 0.2-0.3 0.5-0.3 0.8 0 0.3 0.1 0.6 0.3 0.8 0.2 0.2 0.5 0.3 0.8 0.3C-28.9 258-28.6 257.9-28.4 257.6zM-27.8 256.8c0 0.3-0.1 0.5-0.2 0.7s-0.3 0.4-0.5 0.5 -0.5 0.2-0.7 0.2 -0.5-0.1-0.7-0.2 -0.4-0.3-0.5-0.5 -0.2-0.5-0.2-0.7c0-0.2 0.1-0.5 0.2-0.7 0.1-0.2 0.3-0.4 0.5-0.5 0.2-0.1 0.5-0.2 0.7-0.2 0.3 0 0.5 0.1 0.7 0.2 0.2 0.1 0.4 0.3 0.5 0.5C-27.9 256.3-27.8 256.6-27.8 256.8zM-31.1 258.2h-7.4l-7.7-10.1 -2.5 1.9v2h2.2v6.3H-58v-6.2h2.2v-22H-59v-6.3h10.3v19.8l5.2-3.8h-3.2v-6.3H-33v6.3h-2.2l-5.4 4 6.2 8.1h3.2C-31.1 252-31.1 258.2-31.1 258.2zM-58 245.8c0 0.5 0 1 0 1.6h-14.8c-0.4 4.8 1.4 6.2 4.1 6.2 2.3 0 4-1.5 4-3.9h6.4c-0.1 4.2-2.4 9-10.8 9 -8.5 0-12.4-6.1-12.4-12.9 0-6.1 4.1-12.6 12.3-12.6C-61.4 233.2-58 238.6-58 245.8zM-82.4 245.9c0 0.5 0 1 0 1.6h-14.8c-0.4 4.8 1.4 6.2 4.1 6.2 2.3 0 4-1.5 4-3.9h6.4c-0.1 4.2-2.4 9-10.8 9 -8.5 0-12.4-6.1-12.4-12.9 0-6.1 4.1-12.6 12.3-12.6C-85.8 233.3-82.4 238.7-82.4 245.9zM-105.2 239.8h-2.2l-5.5 18.5h-7.3l-3.4-10.1 -3.1 10.1h-7.4l-6.1-18.5h-2.2v-6.3h12.9v6.3h-3.2l3.4 9.8 4.3-16.1h4l5.4 16.1 2.9-9.8h-3.3v-6.3h10.8V239.8zM-156.6 240c0 0.9 0.7 1.5 3.1 2.2l3.5 1.1c3.2 1.1 7.1 3.4 7.1 7.8 0 5.1-3.8 7.6-8.6 7.6 -3.8 0-6.7-1.8-7.5-2.7v2.1h-6.3v-8.6h6.2c0.2 2.8 2.7 4.3 4.9 4.3 1.8 0 2.7-0.8 2.7-1.7 0-1.1-0.7-1.8-3.8-2.8l-3.1-1c-3.1-1-6.6-3.3-6.6-7.5 0-5.1 4.5-7.6 8.3-7.6 4 0 5.9 1.1 6.9 2.2v-1.9h6.3v7.7h-6.5c-0.1-2.1-2.1-3-4.2-3C-155.9 238.3-156.6 239-156.6 240L-156.6 240zM-165.7 239.8h-2.2l-5.5 18.5h-7.3l-3.4-10.1 -3.1 10.1h-7.4l-6.1-18.5h-2.2v-6.3h12.9v6.3h-3.2l3.4 9.8 4.4-16.1h4l5.4 16.1 2.9-9.8h-3.2v-6.3h10.8C-165.7 233.5-165.7 239.8-165.7 239.8zM-202.5 245.9c0 0.5 0 1 0 1.6h-14.9c-0.4 4.8 1.4 6.2 4.1 6.2 2.3 0 4-1.5 4-3.9h6.4c-0.1 4.2-2.3 9-10.8 9 -8.4 0-12.3-6.1-12.3-12.9 0-6.1 4-12.6 12.2-12.6C-206 233.3-202.5 238.8-202.5 245.9zM-223.9 230h-3.2v27.9h-6l-14.6-19v12.8h3.2v6.2H-258v-6.2h3.2V230h-3.2v-6.2h10.3l13.6 17.7V230h-3.2v-6.2h13.5C-223.9 223.8-223.9 230-223.9 230z"/><rect x="3.5" y="201" class="st0" width="80" height="80"/><path class="st1" d="M61.1 230.3h-3.2v27.9h-6l-14.6-19V252h3.2v6.2H27V252h3.2v-21.7H27V224h10.3l13.6 17.7v-11.4h-3.2V224h13.5C61.1 224 61.1 230.3 61.1 230.3z"/><path class="st2" d="M183.5 224.6c-0.7-0.8-1.8-0.8-1.8-0.8l-8.4 8.4c0 0-0.6 0.6 0 1.2l8.4 8.4c0 0 1.1 0 1.8-0.8 -2.1-2.1-7.6-7.6-7.6-7.6 -0.6-0.6 0-1.2 0-1.2L183.5 224.6 183.5 224.6z"/><path class="st1" d="M-7.7 314.3c4.6 0 7.4 2.4 7.4 6.4s-2.8 6.4-7.4 6.4h-3v6.3h-3.8v-19h6.8V314.3zM-7.8 323.5c2.2 0 3.5-1.1 3.5-2.9 0-1.8-1.3-2.8-3.5-2.8h-2.9v5.7C-10.7 323.5-7.8 323.5-7.8 323.5zM26.6 333.3l-4-6.5h-0.1 -2.9v6.5h-3.8v-19h6.6c4.7 0 7.5 2.4 7.5 6.2 0 2.6-1.3 4.6-3.6 5.6l4.5 7.2C30.8 333.3 26.6 333.3 26.6 333.3zM19.6 323.3H23c2.1 0 3.1-1.3 3.1-2.7 0-1.5-1-2.7-3.1-2.7h-3.4V323.3zM61.2 329.8v3.5H47.6v-19H61v3.5h-9.7v4H59v3.4h-7.7v4.5L61.2 329.8 61.2 329.8zM97.4 314.3v19h-3.8v-11.5l0.1-0.7 -0.3 0.7 -4.4 6.8h-1.5l-4.4-6.8 -0.4-0.7 0.1 0.7v11.5H79v-19h3.6l5.4 8.3 0.3 0.6 0.3-0.6 5.4-8.3H97.4zM115.4 333.3v-19h3.8v19H115.4zM150.9 329.8v3.5h-13.6v-19h13.4v3.5H141v4h7.7v3.4H141v4.5L150.9 329.8 150.9 329.8zM179.3 333.3l-4-6.5h-0.1 -2.9v6.5h-3.8v-19h6.6c4.7 0 7.5 2.4 7.5 6.2 0 2.6-1.3 4.6-3.6 5.6l4.5 7.2C183.5 333.3 179.3 333.3 179.3 333.3zM172.3 323.3h3.4c2.1 0 3.1-1.3 3.1-2.7 0-1.5-1-2.7-3.1-2.7h-3.4V323.3z"/><line class="st3" x1="-35.5" y1="308.9" x2="-35.5" y2="338.9"/><rect x="-36.1" y="308.9" class="st1" width="1.1" height="30"/><path class="st1" d="M-224.6 314.2h-2.8v24.4h-5.1L-245 322v11.2h2.8v5.4h-11.6v-5.4h2.8v-19h-2.8v-5.4h8.8l11.6 15.5v-10h-2.8v-5.5h11.6V314.2zM-206.1 327.9c0 0.4 0 0.9 0 1.3h-12.7c-0.3 4.1 1.2 5.4 3.5 5.4 2 0 3.4-1.3 3.4-3.3h5.5c-0.1 3.6-2 7.8-9.2 7.8 -7.2 0-10.6-5.3-10.6-11.2 0-5.3 3.5-10.9 10.5-10.9C-209.1 317-206.1 321.7-206.1 327.9M-174.7 322.6h-1.9l-4.7 16h-6.2l-2.9-8.8 -2.6 8.8h-6.4l-5.3-16h-1.9v-5.4h11v5.4h-2.8l2.9 8.5 3.8-13.9h3.4l4.6 13.9 2.5-8.5h-2.8v-5.4h9.2L-174.7 322.6 -174.7 322.6zM-166.9 322.8c0 0.8 0.6 1.3 2.7 1.9l3 1c2.7 0.9 6 3 6 6.7 0 4.4-3.3 6.6-7.3 6.6 -3.2 0-5.7-1.6-6.4-2.3v1.8h-5.4v-7.4h5.3c0.2 2.4 2.3 3.7 4.2 3.7 1.6 0 2.3-0.7 2.3-1.5 0-1-0.6-1.5-3.2-2.4l-2.6-0.9c-2.7-0.9-5.7-2.9-5.7-6.5 0-4.4 3.8-6.6 7.1-6.6 3.4 0 5 1 5.9 1.9v-1.7h5.4v6.7h-5.5c-0.1-1.8-1.8-2.6-3.6-2.6C-166.3 321.3-166.9 321.9-166.9 322.8M-123 322.6h-1.9l-4.7 16h-6.2l-2.9-8.8 -2.6 8.8h-6.4l-5.3-16h-1.9v-5.4h11v5.4h-2.8l2.9 8.5 3.8-13.9h3.4l4.6 13.9 2.5-8.5h-2.8v-5.4h9.2v5.4H-123zM-103.4 327.9c0 0.4 0 0.9 0 1.3H-116c-0.3 4.1 1.2 5.4 3.5 5.4 2 0 3.4-1.3 3.4-3.3h5.5c-0.1 3.6-2 7.8-9.2 7.8s-10.6-5.3-10.6-11.2c0-5.3 3.5-10.9 10.5-10.9C-106.4 316.9-103.4 321.6-103.4 327.9M-82.6 327.8c0 0.4 0 0.9 0 1.3h-12.6c-0.3 4.1 1.2 5.4 3.5 5.4 2 0 3.4-1.3 3.4-3.3h5.5c-0.1 3.6-2 7.8-9.2 7.8s-10.6-5.3-10.6-11.2c0-5.3 3.5-10.9 10.5-10.9C-85.5 316.9-82.6 321.6-82.6 327.8M-59.7 338.5H-66l-6.6-8.7 -2.2 1.6v1.7h1.9v5.4h-9.8v-5.4h1.9v-19h-2.8v-5.3h8.8v17.1l4.4-3.3h-2.8v-5.5h11.9v5.5h-1.9l-4.6 3.5 5.3 7h2.8L-59.7 338.5 -59.7 338.5zM-56.8 337.3c0 0.2-0.1 0.4-0.2 0.6 -0.1 0.2-0.3 0.3-0.4 0.5 -0.2 0.1-0.4 0.2-0.6 0.2s-0.4-0.1-0.6-0.2c-0.2-0.1-0.3-0.3-0.4-0.5 -0.1-0.2-0.2-0.4-0.2-0.6 0-0.2 0.1-0.4 0.2-0.6 0.1-0.2 0.3-0.3 0.4-0.5 0.2-0.1 0.4-0.2 0.6-0.2s0.4 0.1 0.6 0.2c0.2 0.1 0.3 0.3 0.4 0.5C-56.9 336.9-56.8 337.1-56.8 337.3M-57.3 338c0.2-0.2 0.3-0.4 0.3-0.7 0-0.3-0.1-0.5-0.3-0.7s-0.4-0.3-0.7-0.3 -0.5 0.1-0.7 0.3c-0.2 0.2-0.3 0.4-0.3 0.7 0 0.3 0.1 0.5 0.3 0.7s0.4 0.3 0.7 0.3C-57.8 338.3-57.5 338.2-57.3 338M-57.9 337.4c0.1 0 0.1 0 0.1 0.1l0.1 0.1c0 0 0.1 0.1 0.2 0.4h-0.4c-0.1-0.3-0.2-0.4-0.2-0.5l-0.1-0.1 0 0v0.5h-0.3v-1.3h0.6c0.2 0 0.3 0 0.3 0.1 0.1 0.1 0.1 0.2 0.1 0.3s0 0.2-0.1 0.2C-57.7 337.3-57.7 337.4-57.9 337.4M-57.9 337.2l0.1-0.1c0 0 0-0.1-0.1-0.1 0 0-0.1 0-0.2 0h-0.2v0.3h0.1C-58 337.2-57.9 337.2-57.9 337.2M-95.3 325.7h6.9c0-3-1.9-4.2-3.4-4.2C-93.4 321.5-95.2 322.9-95.3 325.7M-116.1 325.7h6.9c0-3-1.9-4.2-3.4-4.2C-114.3 321.5-116 322.9-116.1 325.7M-218.8 325.8h6.9c0-3-1.9-4.2-3.4-4.2C-216.9 321.6-218.7 323-218.8 325.8"/><rect x="-258" y="359.8" class="st4" width="42" height="42"/><path class="st5" d="M-245.2 375.6c-0.8 0.7-0.8 1.8-0.8 1.8l8.4 8.4c0 0 0.6 0.6 1.2 0l8.4-8.4c0 0 0-1.1-0.8-1.8 -2.1 2.1-7.6 7.6-7.6 7.6 -0.6 0.6-1.2 0-1.2 0L-245.2 375.6 -245.2 375.6z"/></svg>